<svg width="30" height="33" viewBox="0 0 30 33" fill="none" xmlns="http://www.w3.org/2000/svg">
<g clip-path="url(#clip0_1457_5083)">
<g filter="url(#filter0_d_1457_5083)">
<path d="M23.875 6.36271C19 1.49987 11 1.49987 6.125 6.36271C1.25 11.2256 1.25 19.2056 6.125 24.0684C11 28.9313 18.875 28.9313 23.75 24.0684C28.625 19.2056 28.75 11.2256 23.875 6.36271V6.36271ZM18.5 20.4525L15 16.9612L11.5 20.4525L9.75 18.7068L13.25 15.2156L9.75 11.7243L11.5 9.97867L15 13.4699L18.5 9.97867L20.25 11.7243L16.75 15.2156L20.25 18.7068L18.5 20.4525V20.4525Z" fill="white"/>
</g>
</g>
<defs>
<filter id="filter0_d_1457_5083" x="-1.53125" y="2.71558" width="33.001" height="33" filterUnits="userSpaceOnUse" color-interpolation-filters="sRGB">
<feFlood flood-opacity="0" result="BackgroundImageFix"/>
<feColorMatrix in="SourceAlpha" type="matrix" values="0 0 0 0 0 0 0 0 0 0 0 0 0 0 0 0 0 0 127 0" result="hardAlpha"/>
<feOffset dy="4"/>
<feGaussianBlur stdDeviation="2"/>
<feComposite in2="hardAlpha" operator="out"/>
<feColorMatrix type="matrix" values="0 0 0 0 0 0 0 0 0 0 0 0 0 0 0 0 0 0 0.25 0"/>
<feBlend mode="normal" in2="BackgroundImageFix" result="effect1_dropShadow_1457_5083"/>
<feBlend mode="normal" in="SourceGraphic" in2="effect1_dropShadow_1457_5083" result="shape"/>
</filter>
<clipPath id="clip0_1457_5083">
<rect width="30" height="33" fill="white"/>
</clipPath>
</defs>
</svg>
