<svg width="10" height="12" viewBox="0 0 10 12" fill="none" xmlns="http://www.w3.org/2000/svg">
<path d="M5.00002 0.166748C2.74252 0.166748 0.916687 1.99258 0.916687 4.25008C0.916687 5.26508 1.20835 6.21591 1.73919 7.07341C2.29335 7.97175 3.02252 8.74175 3.58252 9.64008C3.85669 10.0776 4.05502 10.4859 4.26502 10.9584C4.41669 11.2792 4.53919 11.8334 5.00002 11.8334C5.46085 11.8334 5.58335 11.2792 5.72919 10.9584C5.94502 10.4859 6.13752 10.0776 6.41169 9.64008C6.97169 8.74758 7.70085 7.97758 8.25502 7.07341C8.79169 6.21591 9.08335 5.26508 9.08335 4.25008C9.08335 1.99258 7.25752 0.166748 5.00002 0.166748ZM5.00002 5.85425C4.19502 5.85425 3.54169 5.20091 3.54169 4.39591C3.54169 3.59091 4.19502 2.93758 5.00002 2.93758C5.80502 2.93758 6.45835 3.59091 6.45835 4.39591C6.45835 5.20091 5.80502 5.85425 5.00002 5.85425Z" fill="#AD0004"/>
</svg>
