<svg width="14" height="13" viewBox="0 0 14 13" fill="none" xmlns="http://www.w3.org/2000/svg">
<path d="M12.75 2.2375L5.61875 9.375L2.96875 6.725L3.85 5.84375L5.61875 7.6125L11.8687 1.3625L12.75 2.2375ZM6.5 11.5C3.74375 11.5 1.5 9.25625 1.5 6.5C1.5 3.74375 3.74375 1.5 6.5 1.5C7.48125 1.5 8.4 1.7875 9.175 2.28125L10.0812 1.375C9.0625 0.66875 7.83125 0.25 6.5 0.25C3.05 0.25 0.25 3.05 0.25 6.5C0.25 9.95 3.05 12.75 6.5 12.75C7.58125 12.75 8.6 12.475 9.4875 11.9875L8.55 11.05C7.925 11.3375 7.23125 11.5 6.5 11.5ZM10.875 8.375H9V9.625H10.875V11.5H12.125V9.625H14V8.375H12.125V6.5H10.875V8.375Z" fill="#AD0004"/>
</svg>
