<svg width="13" height="13" viewBox="0 0 13 13" fill="none" xmlns="http://www.w3.org/2000/svg">
<path d="M5.79167 10.0417C5.79167 10.4312 6.11042 10.75 6.5 10.75C6.88958 10.75 7.20833 10.4312 7.20833 10.0417C7.20833 9.65208 6.88958 9.33333 6.5 9.33333C6.11042 9.33333 5.79167 9.65208 5.79167 10.0417ZM5.79167 0.125V2.95833H7.20833V1.59833C9.60958 1.94542 11.4583 3.99958 11.4583 6.5C11.4583 9.24125 9.24125 11.4583 6.5 11.4583C3.75875 11.4583 1.54167 9.24125 1.54167 6.5C1.54167 5.31 1.95958 4.21917 2.66083 3.36917L6.5 7.20833L7.49875 6.20958L2.68208 1.39292V1.40708C1.13083 2.56875 0.125 4.41042 0.125 6.5C0.125 10.0204 2.9725 12.875 6.5 12.875C10.0204 12.875 12.875 10.0204 12.875 6.5C12.875 2.97958 10.0204 0.125 6.5 0.125H5.79167ZM10.75 6.5C10.75 6.11042 10.4312 5.79167 10.0417 5.79167C9.65208 5.79167 9.33333 6.11042 9.33333 6.5C9.33333 6.88958 9.65208 7.20833 10.0417 7.20833C10.4312 7.20833 10.75 6.88958 10.75 6.5ZM2.25 6.5C2.25 6.88958 2.56875 7.20833 2.95833 7.20833C3.34792 7.20833 3.66667 6.88958 3.66667 6.5C3.66667 6.11042 3.34792 5.79167 2.95833 5.79167C2.56875 5.79167 2.25 6.11042 2.25 6.5Z" fill="#AD0004"/>
</svg>
