<svg width="25" height="24" viewBox="0 0 25 24" fill="none" xmlns="http://www.w3.org/2000/svg">
<path fill-rule="evenodd" clip-rule="evenodd" d="M11.0996 4C7.23362 4 4.09961 7.13401 4.09961 11C4.09961 14.866 7.23362 18 11.0996 18C14.9656 18 18.0996 14.866 18.0996 11C18.0996 7.13401 14.9656 4 11.0996 4ZM2.09961 11C2.09961 6.02944 6.12905 2 11.0996 2C16.0702 2 20.0996 6.02944 20.0996 11C20.0996 15.9706 16.0702 20 11.0996 20C6.12905 20 2.09961 15.9706 2.09961 11Z" fill="white"/>
<path fill-rule="evenodd" clip-rule="evenodd" d="M16.0429 15.9428C16.4334 15.5523 17.0666 15.5523 17.4571 15.9428L21.8071 20.2928C22.1976 20.6833 22.1976 21.3165 21.8071 21.707C21.4166 22.0975 20.7834 22.0975 20.3929 21.707L16.0429 17.357C15.6524 16.9665 15.6524 16.3333 16.0429 15.9428Z" fill="white"/>
</svg>
