<svg width="25" height="24" viewBox="0 0 25 24" fill="none" xmlns="http://www.w3.org/2000/svg">
<path d="M8.30078 20H11.3008L9.57717 23.4472C9.40778 23.786 9.06152 24 8.68275 24H7.91882C7.17543 24 6.69194 23.2177 7.02439 22.5528L8.30078 20Z" fill="white"/>
<path d="M16.3008 20H13.3008L15.0244 23.4472C15.1938 23.786 15.54 24 15.9188 24H16.6827C17.4261 24 17.9096 23.2177 17.5772 22.5528L16.3008 20Z" fill="white"/>
<path d="M15.3008 16.01L15.3108 15.9989" stroke="white" stroke-width="1.5" stroke-linecap="round" stroke-linejoin="round"/>
<path d="M9.30078 16.01L9.31078 15.9989" stroke="white" stroke-width="1.5" stroke-linecap="round" stroke-linejoin="round"/>
<path d="M13.3008 6H15.3008C18.0622 6 20.3008 8.23858 20.3008 11V18C20.3008 19.1046 19.4054 20 18.3008 20H6.30078C5.19621 20 4.30078 19.1046 4.30078 18V11C4.30078 8.23858 6.53936 6 9.30078 6H13.3008ZM13.3008 6L14.3008 2M14.3008 2H17.3008M14.3008 2H7.30078M16.3008 11.7857V11.7857C16.3008 11.9041 16.2048 12 16.0865 12H8.51507C8.39672 12 8.30078 11.9041 8.30078 11.7857V11.7857C8.30078 10.7995 9.10027 10 10.0865 10H14.5151C15.5013 10 16.3008 10.7995 16.3008 11.7857Z" stroke="white" stroke-width="1.5" stroke-linecap="round" stroke-linejoin="round"/>
</svg>
